<?xml version="1.0" encoding="utf-8"?>
<!-- Generator: Adobe Illustrator 23.1.0, SVG Export Plug-In . SVG Version: 6.00 Build 0)  -->
<svg version="1.1" id="Laag_1" xmlns="http://www.w3.org/2000/svg" xmlns:xlink="http://www.w3.org/1999/xlink" x="0px" y="0px"
	 viewBox="0 0 778 782" style="enable-background:new 0 0 778 782;" xml:space="preserve">
<style type="text/css">
	.st0{fill:none;stroke:#000000;stroke-width:5;stroke-miterlimit:10;}
	.st1{fill:none;stroke:#000000;stroke-miterlimit:10;}
	.st2{fill:#303030;}
</style>
<circle class="st0" cx="388" cy="393" r="377.5"/>
<circle class="st0" cx="391" cy="394" r="156.5"/>
<g>
	<path d="M244.96,110.28c1.91,1.18,4.7,2.16,7.64,2.16c4.36,0,6.91-2.3,6.91-5.63c0-3.09-1.76-4.85-6.22-6.57
		c-5.39-1.91-8.72-4.7-8.72-9.36c0-5.14,4.26-8.97,10.68-8.97c3.38,0,5.83,0.78,7.3,1.62L261.37,87c-1.08-0.59-3.28-1.57-6.27-1.57
		c-4.51,0-6.22,2.69-6.22,4.95c0,3.09,2.01,4.61,6.57,6.37c5.59,2.16,8.43,4.85,8.43,9.7c0,5.1-3.77,9.5-11.56,9.5
		c-3.19,0-6.66-0.93-8.43-2.11L244.96,110.28z"/>
	<path d="M269.55,98.18c0-2.45-0.05-4.46-0.2-6.42h3.77l0.2,3.82h0.15c1.32-2.25,3.53-4.36,7.45-4.36c3.23,0,5.68,1.96,6.71,4.75
		h0.1c0.73-1.32,1.67-2.35,2.65-3.09c1.42-1.08,2.99-1.67,5.24-1.67c3.14,0,7.79,2.06,7.79,10.29v13.96h-4.21v-13.42
		c0-4.56-1.67-7.3-5.14-7.3c-2.45,0-4.36,1.81-5.1,3.92c-0.2,0.59-0.34,1.37-0.34,2.16v14.65h-4.21v-14.21
		c0-3.77-1.67-6.52-4.95-6.52c-2.69,0-4.65,2.16-5.34,4.31c-0.25,0.64-0.34,1.37-0.34,2.11v14.31h-4.21V98.18z"/>
	<path d="M331.88,103.42c0,8.77-6.08,12.59-11.81,12.59c-6.42,0-11.37-4.7-11.37-12.2c0-7.94,5.19-12.59,11.76-12.59
		C327.27,91.22,331.88,96.17,331.88,103.42z M313.06,103.66c0,5.19,2.99,9.11,7.2,9.11c4.12,0,7.2-3.87,7.2-9.21
		c0-4.02-2.01-9.11-7.1-9.11S313.06,99.16,313.06,103.66z"/>
	<path d="M341.58,102.63h0.1c0.59-0.83,1.42-1.86,2.11-2.69l6.96-8.18h5.19l-9.16,9.75l10.44,13.96h-5.24l-8.18-11.37l-2.2,2.45
		v8.92h-4.26V80.68h4.26V102.63z"/>
	<path d="M362.7,104.4c0.1,5.83,3.82,8.23,8.13,8.23c3.09,0,4.95-0.54,6.57-1.23l0.73,3.09c-1.52,0.69-4.12,1.47-7.89,1.47
		c-7.3,0-11.66-4.8-11.66-11.95c0-7.15,4.21-12.79,11.12-12.79c7.74,0,9.8,6.81,9.8,11.17c0,0.88-0.1,1.57-0.15,2.01H362.7z
		 M375.34,101.31c0.05-2.74-1.13-7.01-5.98-7.01c-4.36,0-6.27,4.02-6.61,7.01H375.34z"/>
	<path d="M394.8,110.28c1.91,1.18,4.7,2.16,7.64,2.16c4.36,0,6.91-2.3,6.91-5.63c0-3.09-1.76-4.85-6.22-6.57
		c-5.39-1.91-8.72-4.7-8.72-9.36c0-5.14,4.26-8.97,10.68-8.97c3.38,0,5.83,0.78,7.3,1.62L411.21,87c-1.08-0.59-3.28-1.57-6.27-1.57
		c-4.51,0-6.22,2.69-6.22,4.95c0,3.09,2.01,4.61,6.57,6.37c5.58,2.16,8.43,4.85,8.43,9.7c0,5.1-3.77,9.5-11.56,9.5
		c-3.18,0-6.66-0.93-8.43-2.11L394.8,110.28z"/>
	<path d="M422.09,104.4c0.1,5.83,3.82,8.23,8.13,8.23c3.09,0,4.95-0.54,6.57-1.23l0.73,3.09c-1.52,0.69-4.12,1.47-7.89,1.47
		c-7.3,0-11.66-4.8-11.66-11.95c0-7.15,4.21-12.79,11.12-12.79c7.74,0,9.8,6.81,9.8,11.17c0,0.88-0.1,1.57-0.15,2.01H422.09z
		 M434.73,101.31c0.05-2.74-1.13-7.01-5.98-7.01c-4.36,0-6.27,4.02-6.61,7.01H434.73z"/>
	<path d="M444.24,98.18c0-2.45-0.05-4.46-0.2-6.42h3.82l0.25,3.92h0.1c1.18-2.25,3.92-4.46,7.84-4.46c3.28,0,8.38,1.96,8.38,10.09
		v14.16h-4.31V101.8c0-3.82-1.42-7.01-5.49-7.01c-2.84,0-5.05,2.01-5.78,4.41c-0.2,0.54-0.29,1.27-0.29,2.01v14.26h-4.31V98.18z"/>
	<path d="M470.84,111.06c1.27,0.83,3.53,1.71,5.68,1.71c3.14,0,4.61-1.57,4.61-3.53c0-2.06-1.23-3.18-4.41-4.36
		c-4.26-1.52-6.27-3.87-6.27-6.71c0-3.82,3.09-6.96,8.18-6.96c2.4,0,4.51,0.69,5.83,1.47l-1.08,3.14c-0.93-0.59-2.65-1.37-4.85-1.37
		c-2.55,0-3.97,1.47-3.97,3.23c0,1.96,1.42,2.84,4.51,4.02c4.12,1.57,6.22,3.63,6.22,7.15c0,4.16-3.23,7.1-8.87,7.1
		c-2.6,0-5-0.64-6.66-1.62L470.84,111.06z"/>
	<path d="M512.3,103.42c0,8.77-6.08,12.59-11.81,12.59c-6.42,0-11.37-4.7-11.37-12.2c0-7.94,5.19-12.59,11.76-12.59
		C507.69,91.22,512.3,96.17,512.3,103.42z M493.48,103.66c0,5.19,2.99,9.11,7.2,9.11c4.12,0,7.2-3.87,7.2-9.21
		c0-4.02-2.01-9.11-7.1-9.11C495.69,94.45,493.48,99.16,493.48,103.66z"/>
	<path d="M517.74,99.16c0-2.79-0.05-5.19-0.2-7.4h3.77l0.15,4.65h0.2c1.08-3.18,3.67-5.19,6.57-5.19c0.49,0,0.83,0.05,1.23,0.15
		v4.07c-0.44-0.1-0.88-0.15-1.47-0.15c-3.04,0-5.19,2.3-5.78,5.54c-0.1,0.59-0.2,1.27-0.2,2.01v12.64h-4.26V99.16z"/>
</g>
<circle class="st1" cx="390.5" cy="393.5" r="185"/>
<ellipse class="st2" cx="201" cy="226.5" rx="14" ry="14.5"/>
<ellipse class="st2" cx="154" cy="306.5" rx="14" ry="14.5"/>
<ellipse class="st2" cx="139" cy="397.5" rx="14" ry="14.5"/>
</svg>
