<?xml version="1.0" encoding="utf-8"?>
<!-- Generator: Adobe Illustrator 23.1.0, SVG Export Plug-In . SVG Version: 6.00 Build 0)  -->
<svg version="1.1" id="Laag_1" xmlns="http://www.w3.org/2000/svg" xmlns:xlink="http://www.w3.org/1999/xlink" x="0px" y="0px"
	 viewBox="0 0 872 717" style="enable-background:new 0 0 872 717;" xml:space="preserve">
<style type="text/css">
	.st0{fill:none;stroke:#000000;stroke-width:10;stroke-miterlimit:10;}
	.st1{fill:none;stroke:#000000;stroke-width:4;stroke-miterlimit:10;}
	.st2{fill:none;}
	.st3{font-family:'ArialMT';}
	.st4{font-size:30px;}
	.st5{fill:#38363C;}
	.st6{fill:none;stroke:#38363C;stroke-width:3;stroke-miterlimit:10;}
</style>
<line class="st0" x1="141.5" y1="12.5" x2="742.5" y2="12.5"/>
<line class="st0" x1="10.5" y1="160.5" x2="10.5" y2="580.5"/>
<line class="st0" x1="141.5" y1="705.5" x2="742.5" y2="705.5"/>
<line class="st0" x1="860.5" y1="160.5" x2="860.5" y2="580.5"/>
<path class="st0" d="M10.5,160.5c0-81.8,58.6-148,131-148"/>
<path class="st0" d="M860.5,160.5c0-81.8-52.8-148-118-148"/>
<path class="st0" d="M860.5,580.5c0,69.1-52.8,125-118,125"/>
<path class="st0" d="M10.5,580.5c0,69.1,58.6,125,131,125"/>
<circle class="st0" cx="430.5" cy="314.5" r="118"/>
<image style="overflow:visible;enable-background:new    ;" width="400" height="76" xlink:href="57EAF1C6.png"  transform="matrix(0.6175 0 0 0.6175 306 517)">
</image>
<circle class="st1" cx="196" cy="231" r="20.5"/>
<circle class="st1" cx="195.5" cy="358.5" r="20.5"/>
<circle class="st1" cx="255.5" cy="469.5" r="20.5"/>
<rect x="326.5" y="617" class="st2" width="207.5" height="21"/>
<text transform="matrix(1 0 0 1 266.5 619.2002)" class="st3 st4">Carbon Monoxide Alarm</text>
<ellipse class="st5" cx="737" cy="314.5" rx="15" ry="50.5"/>
<ellipse class="st6" cx="683.4" cy="314.2" rx="11.6" ry="39.2"/>
<ellipse class="st6" cx="637.8" cy="314.8" rx="8.7" ry="29.3"/>
<circle class="st1" cx="430.5" cy="314.5" r="153"/>
</svg>
