<?xml version="1.0" encoding="utf-8"?>
<!-- Generator: Adobe Illustrator 23.1.0, SVG Export Plug-In . SVG Version: 6.00 Build 0)  -->
<svg version="1.1" id="Laag_1" xmlns="http://www.w3.org/2000/svg" xmlns:xlink="http://www.w3.org/1999/xlink" x="0px" y="0px"
	 viewBox="0 0 872 717" style="enable-background:new 0 0 872 717;" xml:space="preserve">
<style type="text/css">
	.st0{fill:none;stroke:#000000;stroke-width:10;stroke-miterlimit:10;}
	.st1{fill:#FFFFFF;}
	.st2{fill:none;stroke:#000000;stroke-width:4;stroke-miterlimit:10;}
	.st3{fill:none;}
	.st4{font-family:'ArialMT';}
	.st5{font-size:30px;}
	.st6{fill:#38363C;}
	.st7{fill:none;stroke:#38363C;stroke-width:3;stroke-miterlimit:10;}
</style>
<line class="st0" x1="141.5" y1="12.5" x2="742.5" y2="12.5"/>
<line class="st0" x1="10.5" y1="160.5" x2="10.5" y2="580.5"/>
<line class="st0" x1="141.5" y1="705.5" x2="742.5" y2="705.5"/>
<line class="st0" x1="860.5" y1="160.5" x2="860.5" y2="580.5"/>
<path class="st0" d="M10.5,160.5c0-81.8,58.6-148,131-148"/>
<path class="st0" d="M860.5,160.5c0-81.8-52.8-148-118-148"/>
<path class="st0" d="M860.5,580.5c0,69.1-52.8,125-118,125"/>
<path class="st0" d="M10.5,580.5c0,69.1,58.6,125,131,125"/>
<circle class="st0" cx="430.5" cy="314.5" r="118"/>
<g>
	<g>
		<path class="st1" d="M306,517c82.3,0,164.7,0,247,0c0,15.6,0,31.3,0,46.9c-82.3,0-164.7,0-247,0C306,548.3,306,532.6,306,517z
			 M427.3,540.3c-0.8,3.1-1.4,5.5-1.9,8c-0.1,0.6-0.2,1.5,0.1,2c1.2,1.6,7.8,1,8.3-0.9c1.9-7.4,3.9-14.9,5.3-22.4
			c0.7-3.9-2-7.3-6.1-7.8c-4.8-0.5-9.8-0.6-14.6,0c-5.2,0.6-8.8,4-10.2,8.9c-2.1,7.3-3.8,14.7-5.7,22c5.1,2.6,8.3,1.3,9.6-3.8
			c0.3-1.4,0.6-2.8,1.2-4.1c0.4-0.8,1.3-1.7,2-1.7C419,540.2,422.8,540.3,427.3,540.3z M473.9,562.7c4.1,0,8,0.3,11.8-0.1
			c5.3-0.5,9-3.5,10.4-8.5c1.8-6.3,3.4-12.7,4.9-19.1c0.9-3.7-0.7-7.2-4.1-8.2c-6.1-1.8-12.3-2-18.3,0.7c-3.1,1.4-4.9,4.2-6,7.4
			c-0.4,1.3-0.7,2.8-1,4.1c-1.7,7,1,10.7,8.4,11c2.9,0.1,5.9,0,8.8,0c0.1,4.5-1.7,6.6-5.8,6.8c-1.3,0.1-2.7,0-4,0
			C474.6,556.8,473.7,557.8,473.9,562.7z M320.7,532.5c0-4.9,1.9-7,6.3-7.2c3.9-0.1,7.8,0,11.7,0c3.6,0,4.9-1.3,5.1-4.8
			c0.1-1.6-0.4-2.2-2.1-2.2c-5.2,0.1-10.5-0.1-15.7,0.1c-6.8,0.3-11.8,4-13.5,10c-1.8,6.5-3.4,13.1-5,19.7c-0.2,0.7-0.1,1.8,0.3,2.2
			c1.9,2,7.7,0.4,8.4-2.2c0.6-2.3,1.3-4.7,1.8-7.1c0.3-1.7,1.2-2.4,2.9-2.3c3.6,0.1,7.2,0,10.8,0c4,0,5.3-2.1,3.9-6.3
			c-2.4,0-4.8,0-7.3,0C325.8,532.5,323.3,532.5,320.7,532.5z M510.7,540.8c1.4-0.1,2.4-0.2,3.4-0.2c4.9,0,9.9,0,14.8-0.1
			c0.9,0,2.1-0.4,2.5-1c3-5.1,1-11.3-4.6-13c-8.4-2.6-20.6-1.3-23.2,11.2c-1.4,6.8,2.2,12.3,9.2,12.7c2.9,0.1,5.7,0,8.6,0
			c4.2-0.1,5.4-1.8,4.6-6.2c-2.7,0.1-5.5,0.3-8.2,0.4C515,544.6,512.1,544.6,510.7,540.8z M381,540.6c6.1,0,12,0,17.8,0
			c0.9,0,2.2-0.3,2.5-1c3.1-5.2,1.1-11.5-4.8-13.2c-9-2.6-20.4-1-23.1,11.5c-1.4,6.6,2.4,12.1,9.2,12.4c3,0.2,6,0.1,8.9,0
			c4-0.1,5.4-2.3,4.2-6.2C382.5,544.8,382.2,544.7,381,540.6z M436.9,550c5.4,2.1,7.7,1.1,8.8-3.6c0.7-2.7,1.3-5.3,2-8
			c1.5-5.9,3.5-7.3,9.6-6.6c3.1,0.3,4.2,1.6,3.5,4.6c-0.8,3.6-1.8,7.1-2.6,10.6c-0.3,1.3-1.6,2.9,0.8,3.8c2.5,0.8,5.9,0,6.4-1.8
			c1.3-4.9,2.7-9.8,3.6-14.7c0.8-4.3-1.3-7.3-5.6-8c-4.2-0.6-8.6-0.5-12.8-0.1c-4.3,0.4-7.7,2.9-9,6.9
			C439.7,538.5,438.5,544.3,436.9,550z M549.1,517.7c-2.7,0-4.7-0.2-6.7,0.1c-0.9,0.2-2.2,1.2-2.4,2.1c-2.7,10-5.2,20-7.8,30.1
			c0.8,0.3,1.4,0.7,2.1,0.8c4.8,0.9,6.4-0.1,7.6-4.8c0.9-3.5,1.9-7.1,2.8-10.6C546.1,529.9,547.5,524.2,549.1,517.7z M350.1,549.9
			c4.7,2.4,7.6,1.2,8.7-3.2c0.7-2.7,1.3-5.5,2-8.2c1.4-5.8,2.6-6.7,8.7-6.7c4.4,0,5.4-1.3,4.4-6.3c-3.6,0.3-7.4,0.2-11.1,0.9
			c-4.1,0.7-7.1,3.4-8.4,7.3C352.7,539,351.5,544.5,350.1,549.9z M352.7,525.9c-1.4-0.3-2.5-0.7-3.5-0.7c-1.7,0.1-3.9-0.3-4.5,2.2
			c-1.9,7.5-3.8,15.1-5.7,22.6c3.6,1.6,7.3,1.3,7.9-0.9C348.9,541.5,350.7,533.9,352.7,525.9z"/>
		<path d="M427.3,540.3c-4.4,0-8.3-0.1-12.2,0.1c-0.7,0-1.7,1-2,1.7c-0.6,1.3-0.8,2.7-1.2,4.1c-1.3,5.1-4.5,6.4-9.6,3.8
			c1.9-7.3,3.5-14.7,5.7-22c1.4-4.9,5-8.4,10.2-8.9c4.8-0.5,9.8-0.5,14.6,0c4.1,0.5,6.8,3.9,6.1,7.8c-1.4,7.5-3.3,15-5.3,22.4
			c-0.5,1.9-7.1,2.6-8.3,0.9c-0.3-0.4-0.2-1.3-0.1-2C425.9,545.8,426.5,543.4,427.3,540.3z M415.5,534.1c3.8,0,7.5-0.1,11.1,0
			c3.2,0.1,2.8-2.4,3.2-4.2c0.5-1.9,0.1-3.7-2.1-4.5C421,523.1,415.9,526.5,415.5,534.1z"/>
		<path d="M473.9,562.7c-0.2-4.9,0.7-5.9,5.2-5.9c1.3,0,2.7,0,4,0c4-0.2,5.9-2.3,5.8-6.8c-2.9,0-5.9,0.1-8.8,0
			c-7.4-0.3-10.1-4-8.4-11c0.3-1.4,0.6-2.8,1-4.1c1-3.2,2.8-6,6-7.4c5.9-2.7,12.2-2.5,18.3-0.7c3.4,1,5,4.5,4.1,8.2
			c-1.5,6.4-3,12.8-4.9,19.1c-1.5,5-5.1,8.1-10.4,8.5C481.8,562.9,477.9,562.7,473.9,562.7z M484.6,543.9c2.9,0.1,5.8-0.1,6.7-3.1
			c0.8-2.4,1.7-6.4,0.5-7.5c-1.6-1.5-5.2-0.9-7.9-1.2c-0.1,0-0.2,0-0.3,0.1c-2.5,0.8-5.1,5.7-4.5,8.9
			C479.8,544.3,482.3,544,484.6,543.9z"/>
		<path d="M320.7,532.5c2.5,0,5.1,0,7.6,0c2.4,0,4.9,0,7.3,0c1.4,4.3,0,6.3-3.9,6.3c-3.6,0-7.2,0.1-10.8,0c-1.8-0.1-2.6,0.6-2.9,2.3
			c-0.5,2.4-1.1,4.7-1.8,7.1c-0.7,2.6-6.6,4.2-8.4,2.2c-0.4-0.4-0.5-1.5-0.3-2.2c1.6-6.6,3.2-13.2,5-19.7c1.7-6,6.7-9.7,13.5-10
			c5.2-0.2,10.5,0,15.7-0.1c1.6,0,2.2,0.6,2.1,2.2c-0.2,3.5-1.6,4.8-5.1,4.8c-3.9,0-7.8-0.1-11.7,0
			C322.7,525.5,320.7,527.7,320.7,532.5z"/>
		<path d="M510.7,540.8c1.4,3.8,4.2,3.8,7.1,3.8c2.7-0.1,5.5-0.2,8.2-0.4c0.9,4.4-0.4,6.1-4.6,6.2c-2.9,0.1-5.8,0.2-8.6,0
			c-7-0.4-10.7-5.8-9.2-12.7c2.6-12.5,14.8-13.8,23.2-11.2c5.6,1.7,7.6,8,4.6,13c-0.4,0.6-1.6,1-2.5,1c-4.9,0.1-9.9,0-14.8,0.1
			C513.1,540.6,512.2,540.7,510.7,540.8z M524.7,535.3c0.2-3.1-1.8-3.5-3.8-3.7c-4.1-0.5-7.3,1-8.3,3.7
			C516.6,535.3,520.6,535.3,524.7,535.3z"/>
		<path d="M381,540.6c1.2,4.1,1.5,4.2,14.9,3.5c1.2,3.9-0.2,6.1-4.2,6.2c-3,0.1-6,0.2-8.9,0c-6.9-0.4-10.7-5.8-9.2-12.4
			c2.6-12.5,14.1-14.1,23.1-11.5c5.8,1.7,7.9,8,4.8,13.2c-0.4,0.6-1.7,0.9-2.5,1C393,540.6,387.1,540.6,381,540.6z M382.5,535.2
			c4.1,0,8.1,0,12.1,0c0.7-2.3-0.8-3-2.5-3.5C388.5,530.7,384.2,532.3,382.5,535.2z"/>
		<path d="M436.9,550c1.6-5.8,2.8-11.5,4.8-17c1.4-4,4.8-6.5,9-6.9c4.2-0.4,8.6-0.5,12.8,0.1c4.3,0.6,6.4,3.7,5.6,8
			c-0.9,5-2.3,9.9-3.6,14.7c-0.5,1.8-4,2.6-6.4,1.8c-2.4-0.8-1.1-2.5-0.8-3.8c0.8-3.6,1.8-7.1,2.6-10.6c0.7-3-0.4-4.3-3.5-4.6
			c-6.1-0.6-8.1,0.8-9.6,6.6c-0.7,2.6-1.4,5.3-2,8C444.6,551.1,442.3,552.2,436.9,550z"/>
		<path d="M549.1,517.7c-1.6,6.5-3,12.2-4.4,17.8c-0.9,3.5-1.8,7.1-2.8,10.6c-1.2,4.7-2.8,5.7-7.6,4.8c-0.7-0.1-1.3-0.5-2.1-0.8
			c2.6-10.1,5.1-20.1,7.8-30.1c0.2-0.9,1.5-2,2.4-2.1C544.4,517.5,546.5,517.7,549.1,517.7z"/>
		<path d="M350.1,549.9c1.4-5.4,2.6-10.9,4.3-16.3c1.3-3.9,4.3-6.5,8.4-7.3c3.7-0.7,7.4-0.6,11.1-0.9c1,4.9,0,6.3-4.4,6.3
			c-6.1,0-7.2,0.9-8.7,6.7c-0.7,2.7-1.3,5.5-2,8.2C357.6,551.2,354.8,552.3,350.1,549.9z"/>
		<path d="M352.7,525.9c-2,7.9-3.8,15.6-5.9,23.2c-0.6,2.1-4.2,2.5-7.9,0.9c1.9-7.5,3.7-15,5.7-22.6c0.6-2.4,2.8-2,4.5-2.2
			C350.2,525.2,351.3,525.7,352.7,525.9z"/>
		<path class="st1" d="M415.5,534.1c0.4-7.6,5.5-11,12.3-8.6c2.2,0.8,2.6,2.6,2.1,4.5c-0.4,1.8,0,4.3-3.2,4.2
			C423,534,419.4,534.1,415.5,534.1z"/>
		<path class="st1" d="M484.6,543.9c-2.3,0-4.9,0.3-5.5-2.8c-0.6-3.2,2-8.1,4.5-8.9c0.1,0,0.2-0.1,0.3-0.1c2.7,0.3,6.3-0.3,7.9,1.2
			c1.2,1.1,0.3,5.1-0.5,7.5C490.4,543.8,487.5,544.1,484.6,543.9z"/>
		<path class="st1" d="M524.7,535.3c-4.1,0-8.1,0-12,0c1-2.8,4.2-4.2,8.3-3.7C522.9,531.8,524.9,532.2,524.7,535.3z"/>
		<path class="st1" d="M382.5,535.2c1.7-3,6-4.5,9.6-3.5c1.6,0.5,3.1,1.2,2.5,3.5C390.5,535.2,386.6,535.2,382.5,535.2z"/>
	</g>
</g>
<circle class="st2" cx="196" cy="231" r="20.5"/>
<circle class="st2" cx="195.5" cy="358.5" r="20.5"/>
<circle class="st2" cx="255.5" cy="469.5" r="20.5"/>
<rect x="326.5" y="617" class="st3" width="207.5" height="21"/>
<text transform="matrix(1 0 0 1 266.5 619.2002)" class="st4 st5">Carbon Monoxide Alarm</text>
<ellipse class="st6" cx="737" cy="314.5" rx="15" ry="50.5"/>
<ellipse class="st7" cx="683.4" cy="314.2" rx="11.6" ry="39.2"/>
<ellipse class="st7" cx="637.8" cy="314.8" rx="8.7" ry="29.3"/>
<circle class="st2" cx="430.5" cy="314.5" r="153"/>
</svg>
